<mxfile host="Electron" modified="2023-12-09T09:19:13.867Z" agent="Mozilla/5.0 (Windows NT 10.0; Win64; x64) AppleWebKit/537.36 (KHTML, like Gecko) draw.io/22.0.1 Chrome/114.0.5735.289 Electron/25.8.4 Safari/537.36" etag="Osz-f4kRqtr0PRl93_1y" version="22.0.1" type="device">
  <diagram name="Page-1" id="hqkij3Ra2ce00QD3FHT6">
    <mxGraphModel dx="1313" dy="776" grid="1" gridSize="10" guides="1" tooltips="1" connect="1" arrows="1" fold="1" page="1" pageScale="1" pageWidth="850" pageHeight="1100" math="0" shadow="0">
      <root>
        <mxCell id="0" />
        <mxCell id="1" parent="0" />
        <mxCell id="AmwMtuHMDqsK4zgOlvkH-10" value="" style="endArrow=classic;html=1;rounded=0;exitX=0.5;exitY=1;exitDx=0;exitDy=0;entryX=0.5;entryY=0;entryDx=0;entryDy=0;edgeStyle=orthogonalEdgeStyle;" edge="1" parent="1" source="AmwMtuHMDqsK4zgOlvkH-5" target="AmwMtuHMDqsK4zgOlvkH-6">
          <mxGeometry width="50" height="50" relative="1" as="geometry">
            <mxPoint x="660" y="340" as="sourcePoint" />
            <mxPoint x="710" y="290" as="targetPoint" />
            <Array as="points">
              <mxPoint x="860" y="260" />
              <mxPoint x="520" y="260" />
              <mxPoint x="520" y="320" />
              <mxPoint x="420" y="320" />
            </Array>
          </mxGeometry>
        </mxCell>
        <mxCell id="AmwMtuHMDqsK4zgOlvkH-11" value="" style="endArrow=classic;html=1;rounded=0;exitX=0.5;exitY=1;exitDx=0;exitDy=0;entryX=0.5;entryY=0;entryDx=0;entryDy=0;edgeStyle=orthogonalEdgeStyle;" edge="1" parent="1" source="AmwMtuHMDqsK4zgOlvkH-5" target="AmwMtuHMDqsK4zgOlvkH-7">
          <mxGeometry width="50" height="50" relative="1" as="geometry">
            <mxPoint x="550" y="400" as="sourcePoint" />
            <mxPoint x="600" y="350" as="targetPoint" />
            <Array as="points">
              <mxPoint x="860" y="260" />
              <mxPoint x="520" y="260" />
              <mxPoint x="520" y="320" />
              <mxPoint x="620" y="320" />
            </Array>
          </mxGeometry>
        </mxCell>
        <mxCell id="AmwMtuHMDqsK4zgOlvkH-24" value="" style="endArrow=classic;html=1;rounded=0;exitX=0.5;exitY=1;exitDx=0;exitDy=0;entryX=0.5;entryY=0;entryDx=0;entryDy=0;edgeStyle=orthogonalEdgeStyle;" edge="1" parent="1" source="AmwMtuHMDqsK4zgOlvkH-16" target="AmwMtuHMDqsK4zgOlvkH-23">
          <mxGeometry width="50" height="50" relative="1" as="geometry">
            <mxPoint x="460" y="680" as="sourcePoint" />
            <mxPoint x="250" y="790" as="targetPoint" />
            <Array as="points">
              <mxPoint x="420" y="700" />
              <mxPoint x="520" y="700" />
              <mxPoint x="520" y="760" />
              <mxPoint x="220" y="760" />
            </Array>
          </mxGeometry>
        </mxCell>
        <mxCell id="AmwMtuHMDqsK4zgOlvkH-25" value="" style="endArrow=classic;html=1;rounded=0;exitX=0.5;exitY=1;exitDx=0;exitDy=0;entryX=0.5;entryY=0;entryDx=0;entryDy=0;edgeStyle=orthogonalEdgeStyle;" edge="1" parent="1" source="AmwMtuHMDqsK4zgOlvkH-17" target="AmwMtuHMDqsK4zgOlvkH-23">
          <mxGeometry width="50" height="50" relative="1" as="geometry">
            <mxPoint x="660" y="680" as="sourcePoint" />
            <mxPoint x="250" y="790" as="targetPoint" />
            <Array as="points">
              <mxPoint x="620" y="700" />
              <mxPoint x="520" y="700" />
              <mxPoint x="520" y="760" />
              <mxPoint x="220" y="760" />
            </Array>
          </mxGeometry>
        </mxCell>
        <mxCell id="AmwMtuHMDqsK4zgOlvkH-55" value="Phase 2" style="swimlane;whiteSpace=wrap;html=1;" vertex="1" parent="1">
          <mxGeometry x="140" y="280" width="800" height="440" as="geometry" />
        </mxCell>
        <mxCell id="AmwMtuHMDqsK4zgOlvkH-6" value="Thiết kế HTML cho trang Product, Cart, Home, ProductDetail" style="ellipse;whiteSpace=wrap;html=1;" vertex="1" parent="AmwMtuHMDqsK4zgOlvkH-55">
          <mxGeometry x="220" y="80" width="120" height="80" as="geometry" />
        </mxCell>
        <mxCell id="AmwMtuHMDqsK4zgOlvkH-7" value="Thiết kế HTML cho trang Admin, Payment, Login/Register" style="ellipse;whiteSpace=wrap;html=1;" vertex="1" parent="AmwMtuHMDqsK4zgOlvkH-55">
          <mxGeometry x="420" y="80" width="120" height="80" as="geometry" />
        </mxCell>
        <mxCell id="AmwMtuHMDqsK4zgOlvkH-8" value="Thiết kế CSS cho trang Product, Cart, Home, ProductDetail" style="ellipse;whiteSpace=wrap;html=1;" vertex="1" parent="AmwMtuHMDqsK4zgOlvkH-55">
          <mxGeometry x="220" y="200" width="120" height="80" as="geometry" />
        </mxCell>
        <mxCell id="AmwMtuHMDqsK4zgOlvkH-9" value="Thiết kế CSS cho trang Admin, Payment, Login/Register" style="ellipse;whiteSpace=wrap;html=1;" vertex="1" parent="AmwMtuHMDqsK4zgOlvkH-55">
          <mxGeometry x="420" y="200" width="120" height="80" as="geometry" />
        </mxCell>
        <mxCell id="AmwMtuHMDqsK4zgOlvkH-16" value="Bắt Event cho trang Product, Cart, Home, ProductDetail" style="ellipse;whiteSpace=wrap;html=1;" vertex="1" parent="AmwMtuHMDqsK4zgOlvkH-55">
          <mxGeometry x="220" y="320" width="120" height="80" as="geometry" />
        </mxCell>
        <mxCell id="AmwMtuHMDqsK4zgOlvkH-17" value="Bắt Event cho trang Admin, Payment, Login/Register" style="ellipse;whiteSpace=wrap;html=1;" vertex="1" parent="AmwMtuHMDqsK4zgOlvkH-55">
          <mxGeometry x="420" y="320" width="120" height="80" as="geometry" />
        </mxCell>
        <mxCell id="AmwMtuHMDqsK4zgOlvkH-18" value="" style="endArrow=classic;html=1;rounded=0;exitX=0.5;exitY=1;exitDx=0;exitDy=0;entryX=0.5;entryY=0;entryDx=0;entryDy=0;" edge="1" parent="AmwMtuHMDqsK4zgOlvkH-55" source="AmwMtuHMDqsK4zgOlvkH-6" target="AmwMtuHMDqsK4zgOlvkH-8">
          <mxGeometry width="50" height="50" relative="1" as="geometry">
            <mxPoint x="210" y="230" as="sourcePoint" />
            <mxPoint x="260" y="180" as="targetPoint" />
          </mxGeometry>
        </mxCell>
        <mxCell id="AmwMtuHMDqsK4zgOlvkH-19" value="" style="endArrow=classic;html=1;rounded=0;exitX=0.5;exitY=1;exitDx=0;exitDy=0;entryX=0.5;entryY=0;entryDx=0;entryDy=0;" edge="1" parent="AmwMtuHMDqsK4zgOlvkH-55" source="AmwMtuHMDqsK4zgOlvkH-7" target="AmwMtuHMDqsK4zgOlvkH-9">
          <mxGeometry width="50" height="50" relative="1" as="geometry">
            <mxPoint x="650" y="200" as="sourcePoint" />
            <mxPoint x="700" y="150" as="targetPoint" />
          </mxGeometry>
        </mxCell>
        <mxCell id="AmwMtuHMDqsK4zgOlvkH-20" value="" style="endArrow=classic;html=1;rounded=0;exitX=0.5;exitY=1;exitDx=0;exitDy=0;entryX=0.5;entryY=0;entryDx=0;entryDy=0;" edge="1" parent="AmwMtuHMDqsK4zgOlvkH-55" source="AmwMtuHMDqsK4zgOlvkH-8" target="AmwMtuHMDqsK4zgOlvkH-16">
          <mxGeometry width="50" height="50" relative="1" as="geometry">
            <mxPoint x="190" y="390" as="sourcePoint" />
            <mxPoint x="240" y="340" as="targetPoint" />
          </mxGeometry>
        </mxCell>
        <mxCell id="AmwMtuHMDqsK4zgOlvkH-21" value="" style="endArrow=classic;html=1;rounded=0;exitX=0.5;exitY=1;exitDx=0;exitDy=0;entryX=0.5;entryY=0;entryDx=0;entryDy=0;" edge="1" parent="AmwMtuHMDqsK4zgOlvkH-55" source="AmwMtuHMDqsK4zgOlvkH-9" target="AmwMtuHMDqsK4zgOlvkH-17">
          <mxGeometry width="50" height="50" relative="1" as="geometry">
            <mxPoint x="630" y="340" as="sourcePoint" />
            <mxPoint x="680" y="290" as="targetPoint" />
          </mxGeometry>
        </mxCell>
        <mxCell id="AmwMtuHMDqsK4zgOlvkH-1" value="Xây dựng nội dung khảo sát" style="ellipse;whiteSpace=wrap;html=1;" vertex="1" parent="1">
          <mxGeometry x="160" y="160" width="120" height="80" as="geometry" />
        </mxCell>
        <mxCell id="AmwMtuHMDqsK4zgOlvkH-12" value="" style="endArrow=classic;html=1;rounded=0;exitX=1;exitY=0.5;exitDx=0;exitDy=0;entryX=0;entryY=0.5;entryDx=0;entryDy=0;" edge="1" parent="1" source="AmwMtuHMDqsK4zgOlvkH-1" target="AmwMtuHMDqsK4zgOlvkH-2">
          <mxGeometry width="50" height="50" relative="1" as="geometry">
            <mxPoint x="290" y="340" as="sourcePoint" />
            <mxPoint x="340" y="290" as="targetPoint" />
          </mxGeometry>
        </mxCell>
        <mxCell id="AmwMtuHMDqsK4zgOlvkH-23" value="Tạo dự án Spring-Web" style="ellipse;whiteSpace=wrap;html=1;" vertex="1" parent="1">
          <mxGeometry x="160" y="790" width="120" height="80" as="geometry" />
        </mxCell>
        <mxCell id="AmwMtuHMDqsK4zgOlvkH-27" value="" style="endArrow=classic;html=1;rounded=0;exitX=1;exitY=0.5;exitDx=0;exitDy=0;entryX=0;entryY=0.5;entryDx=0;entryDy=0;" edge="1" parent="1" source="AmwMtuHMDqsK4zgOlvkH-23" target="AmwMtuHMDqsK4zgOlvkH-26">
          <mxGeometry width="50" height="50" relative="1" as="geometry">
            <mxPoint x="100" y="730" as="sourcePoint" />
            <mxPoint x="150" y="680" as="targetPoint" />
          </mxGeometry>
        </mxCell>
        <mxCell id="AmwMtuHMDqsK4zgOlvkH-45" value="" style="endArrow=classic;html=1;rounded=0;exitX=0.5;exitY=1;exitDx=0;exitDy=0;entryX=0.5;entryY=0;entryDx=0;entryDy=0;" edge="1" parent="1" source="AmwMtuHMDqsK4zgOlvkH-40" target="AmwMtuHMDqsK4zgOlvkH-43">
          <mxGeometry width="50" height="50" relative="1" as="geometry">
            <mxPoint x="300" y="1390" as="sourcePoint" />
            <mxPoint x="350" y="1340" as="targetPoint" />
          </mxGeometry>
        </mxCell>
        <mxCell id="AmwMtuHMDqsK4zgOlvkH-54" value="Phase 1" style="swimlane;whiteSpace=wrap;html=1;" vertex="1" parent="1">
          <mxGeometry x="140" y="100" width="800" height="180" as="geometry" />
        </mxCell>
        <mxCell id="AmwMtuHMDqsK4zgOlvkH-2" value="Khảo sát các nghiệp vụ cụ thể" style="ellipse;whiteSpace=wrap;html=1;" vertex="1" parent="AmwMtuHMDqsK4zgOlvkH-54">
          <mxGeometry x="180" y="60" width="120" height="80" as="geometry" />
        </mxCell>
        <mxCell id="AmwMtuHMDqsK4zgOlvkH-3" value="Khảo sát các chức năng cần thiết cho phần mềm" style="ellipse;whiteSpace=wrap;html=1;" vertex="1" parent="AmwMtuHMDqsK4zgOlvkH-54">
          <mxGeometry x="340" y="60" width="120" height="80" as="geometry" />
        </mxCell>
        <mxCell id="AmwMtuHMDqsK4zgOlvkH-13" value="" style="endArrow=classic;html=1;rounded=0;exitX=1;exitY=0.5;exitDx=0;exitDy=0;entryX=0;entryY=0.5;entryDx=0;entryDy=0;" edge="1" parent="AmwMtuHMDqsK4zgOlvkH-54" source="AmwMtuHMDqsK4zgOlvkH-2" target="AmwMtuHMDqsK4zgOlvkH-3">
          <mxGeometry width="50" height="50" relative="1" as="geometry">
            <mxPoint x="360" y="190" as="sourcePoint" />
            <mxPoint x="410" y="140" as="targetPoint" />
          </mxGeometry>
        </mxCell>
        <mxCell id="AmwMtuHMDqsK4zgOlvkH-4" value="Xác định các nhu cầu của khách hàng" style="ellipse;whiteSpace=wrap;html=1;" vertex="1" parent="AmwMtuHMDqsK4zgOlvkH-54">
          <mxGeometry x="500" y="60" width="120" height="80" as="geometry" />
        </mxCell>
        <mxCell id="AmwMtuHMDqsK4zgOlvkH-14" value="" style="endArrow=classic;html=1;rounded=0;exitX=1;exitY=0.5;exitDx=0;exitDy=0;entryX=0;entryY=0.5;entryDx=0;entryDy=0;" edge="1" parent="AmwMtuHMDqsK4zgOlvkH-54" source="AmwMtuHMDqsK4zgOlvkH-3" target="AmwMtuHMDqsK4zgOlvkH-4">
          <mxGeometry width="50" height="50" relative="1" as="geometry">
            <mxPoint x="510" y="200" as="sourcePoint" />
            <mxPoint x="560" y="150" as="targetPoint" />
          </mxGeometry>
        </mxCell>
        <mxCell id="AmwMtuHMDqsK4zgOlvkH-5" value="Thiết kế Database" style="ellipse;whiteSpace=wrap;html=1;" vertex="1" parent="AmwMtuHMDqsK4zgOlvkH-54">
          <mxGeometry x="660" y="60" width="120" height="80" as="geometry" />
        </mxCell>
        <mxCell id="AmwMtuHMDqsK4zgOlvkH-15" value="" style="endArrow=classic;html=1;rounded=0;exitX=1;exitY=0.5;exitDx=0;exitDy=0;entryX=0;entryY=0.5;entryDx=0;entryDy=0;" edge="1" parent="AmwMtuHMDqsK4zgOlvkH-54" source="AmwMtuHMDqsK4zgOlvkH-4" target="AmwMtuHMDqsK4zgOlvkH-5">
          <mxGeometry width="50" height="50" relative="1" as="geometry">
            <mxPoint x="270" y="200" as="sourcePoint" />
            <mxPoint x="320" y="150" as="targetPoint" />
          </mxGeometry>
        </mxCell>
        <mxCell id="AmwMtuHMDqsK4zgOlvkH-56" value="Phase 3" style="swimlane;whiteSpace=wrap;html=1;" vertex="1" parent="1">
          <mxGeometry x="140" y="720" width="800" height="420" as="geometry" />
        </mxCell>
        <mxCell id="AmwMtuHMDqsK4zgOlvkH-26" value="Import các thư viện, cấu hình" style="ellipse;whiteSpace=wrap;html=1;" vertex="1" parent="AmwMtuHMDqsK4zgOlvkH-56">
          <mxGeometry x="180" y="70" width="120" height="80" as="geometry" />
        </mxCell>
        <mxCell id="AmwMtuHMDqsK4zgOlvkH-28" value="Các lớp Controller" style="ellipse;whiteSpace=wrap;html=1;" vertex="1" parent="AmwMtuHMDqsK4zgOlvkH-56">
          <mxGeometry x="340" y="70" width="120" height="80" as="geometry" />
        </mxCell>
        <mxCell id="AmwMtuHMDqsK4zgOlvkH-50" value="" style="endArrow=classic;html=1;rounded=0;exitX=1;exitY=0.5;exitDx=0;exitDy=0;entryX=0;entryY=0.5;entryDx=0;entryDy=0;" edge="1" parent="AmwMtuHMDqsK4zgOlvkH-56" source="AmwMtuHMDqsK4zgOlvkH-26" target="AmwMtuHMDqsK4zgOlvkH-28">
          <mxGeometry width="50" height="50" relative="1" as="geometry">
            <mxPoint x="340" y="200" as="sourcePoint" />
            <mxPoint x="390" y="150" as="targetPoint" />
          </mxGeometry>
        </mxCell>
        <mxCell id="AmwMtuHMDqsK4zgOlvkH-29" value="Các lớp Model" style="ellipse;whiteSpace=wrap;html=1;" vertex="1" parent="AmwMtuHMDqsK4zgOlvkH-56">
          <mxGeometry x="500" y="70" width="120" height="80" as="geometry" />
        </mxCell>
        <mxCell id="AmwMtuHMDqsK4zgOlvkH-51" value="" style="endArrow=classic;html=1;rounded=0;exitX=1;exitY=0.5;exitDx=0;exitDy=0;entryX=0;entryY=0.5;entryDx=0;entryDy=0;" edge="1" parent="AmwMtuHMDqsK4zgOlvkH-56" source="AmwMtuHMDqsK4zgOlvkH-28" target="AmwMtuHMDqsK4zgOlvkH-29">
          <mxGeometry width="50" height="50" relative="1" as="geometry">
            <mxPoint x="540" y="200" as="sourcePoint" />
            <mxPoint x="590" y="150" as="targetPoint" />
          </mxGeometry>
        </mxCell>
        <mxCell id="AmwMtuHMDqsK4zgOlvkH-30" value="Các thư mục View, Resource Static" style="ellipse;whiteSpace=wrap;html=1;" vertex="1" parent="AmwMtuHMDqsK4zgOlvkH-56">
          <mxGeometry x="660" y="70" width="120" height="80" as="geometry" />
        </mxCell>
        <mxCell id="AmwMtuHMDqsK4zgOlvkH-34" value="" style="endArrow=classic;html=1;rounded=0;exitX=1;exitY=0.5;exitDx=0;exitDy=0;entryX=0;entryY=0.5;entryDx=0;entryDy=0;" edge="1" parent="AmwMtuHMDqsK4zgOlvkH-56" source="AmwMtuHMDqsK4zgOlvkH-29" target="AmwMtuHMDqsK4zgOlvkH-30">
          <mxGeometry width="50" height="50" relative="1" as="geometry">
            <mxPoint x="460" y="230" as="sourcePoint" />
            <mxPoint x="510" y="180" as="targetPoint" />
          </mxGeometry>
        </mxCell>
        <mxCell id="AmwMtuHMDqsK4zgOlvkH-37" value="Package, Lớp Service" style="ellipse;whiteSpace=wrap;html=1;" vertex="1" parent="AmwMtuHMDqsK4zgOlvkH-56">
          <mxGeometry x="180" y="190" width="120" height="80" as="geometry" />
        </mxCell>
        <mxCell id="AmwMtuHMDqsK4zgOlvkH-36" value="Package, Lớp DAO" style="ellipse;whiteSpace=wrap;html=1;" vertex="1" parent="AmwMtuHMDqsK4zgOlvkH-56">
          <mxGeometry x="340" y="190" width="120" height="80" as="geometry" />
        </mxCell>
        <mxCell id="AmwMtuHMDqsK4zgOlvkH-49" value="" style="endArrow=classic;html=1;rounded=0;exitX=0;exitY=0.5;exitDx=0;exitDy=0;entryX=1;entryY=0.5;entryDx=0;entryDy=0;" edge="1" parent="AmwMtuHMDqsK4zgOlvkH-56" source="AmwMtuHMDqsK4zgOlvkH-36" target="AmwMtuHMDqsK4zgOlvkH-37">
          <mxGeometry width="50" height="50" relative="1" as="geometry">
            <mxPoint x="470" y="410" as="sourcePoint" />
            <mxPoint x="520" y="360" as="targetPoint" />
          </mxGeometry>
        </mxCell>
        <mxCell id="AmwMtuHMDqsK4zgOlvkH-32" value="Package, Lớp DTO" style="ellipse;whiteSpace=wrap;html=1;" vertex="1" parent="AmwMtuHMDqsK4zgOlvkH-56">
          <mxGeometry x="500" y="190" width="120" height="80" as="geometry" />
        </mxCell>
        <mxCell id="AmwMtuHMDqsK4zgOlvkH-48" value="" style="endArrow=classic;html=1;rounded=0;exitX=0;exitY=0.5;exitDx=0;exitDy=0;entryX=1;entryY=0.5;entryDx=0;entryDy=0;" edge="1" parent="AmwMtuHMDqsK4zgOlvkH-56" source="AmwMtuHMDqsK4zgOlvkH-32" target="AmwMtuHMDqsK4zgOlvkH-36">
          <mxGeometry width="50" height="50" relative="1" as="geometry">
            <mxPoint x="480" y="450" as="sourcePoint" />
            <mxPoint x="530" y="400" as="targetPoint" />
          </mxGeometry>
        </mxCell>
        <mxCell id="AmwMtuHMDqsK4zgOlvkH-31" value="Package, Lớp Config" style="ellipse;whiteSpace=wrap;html=1;" vertex="1" parent="AmwMtuHMDqsK4zgOlvkH-56">
          <mxGeometry x="660" y="190" width="120" height="80" as="geometry" />
        </mxCell>
        <mxCell id="AmwMtuHMDqsK4zgOlvkH-33" value="" style="endArrow=classic;html=1;rounded=0;exitX=0.5;exitY=1;exitDx=0;exitDy=0;entryX=0.5;entryY=0;entryDx=0;entryDy=0;" edge="1" parent="AmwMtuHMDqsK4zgOlvkH-56" source="AmwMtuHMDqsK4zgOlvkH-30" target="AmwMtuHMDqsK4zgOlvkH-31">
          <mxGeometry width="50" height="50" relative="1" as="geometry">
            <mxPoint x="920" y="380" as="sourcePoint" />
            <mxPoint x="970" y="330" as="targetPoint" />
          </mxGeometry>
        </mxCell>
        <mxCell id="AmwMtuHMDqsK4zgOlvkH-35" value="" style="endArrow=classic;html=1;rounded=0;exitX=0;exitY=0.5;exitDx=0;exitDy=0;entryX=1;entryY=0.5;entryDx=0;entryDy=0;" edge="1" parent="AmwMtuHMDqsK4zgOlvkH-56" source="AmwMtuHMDqsK4zgOlvkH-31" target="AmwMtuHMDqsK4zgOlvkH-32">
          <mxGeometry width="50" height="50" relative="1" as="geometry">
            <mxPoint x="430" y="330" as="sourcePoint" />
            <mxPoint x="740" y="220" as="targetPoint" />
          </mxGeometry>
        </mxCell>
        <mxCell id="AmwMtuHMDqsK4zgOlvkH-38" value="Import thư viện Spring Security và các class configSecurity" style="ellipse;whiteSpace=wrap;html=1;" vertex="1" parent="AmwMtuHMDqsK4zgOlvkH-56">
          <mxGeometry x="20" y="190" width="120" height="80" as="geometry" />
        </mxCell>
        <mxCell id="AmwMtuHMDqsK4zgOlvkH-47" value="" style="endArrow=classic;html=1;rounded=0;exitX=0;exitY=0.5;exitDx=0;exitDy=0;entryX=1;entryY=0.5;entryDx=0;entryDy=0;" edge="1" parent="AmwMtuHMDqsK4zgOlvkH-56" source="AmwMtuHMDqsK4zgOlvkH-37" target="AmwMtuHMDqsK4zgOlvkH-38">
          <mxGeometry width="50" height="50" relative="1" as="geometry">
            <mxPoint x="500" y="450" as="sourcePoint" />
            <mxPoint x="550" y="400" as="targetPoint" />
          </mxGeometry>
        </mxCell>
        <mxCell id="AmwMtuHMDqsK4zgOlvkH-39" value="Thiết kế logic xác thực đăng nhập người dùng" style="ellipse;whiteSpace=wrap;html=1;" vertex="1" parent="AmwMtuHMDqsK4zgOlvkH-56">
          <mxGeometry x="20" y="310" width="120" height="80" as="geometry" />
        </mxCell>
        <mxCell id="AmwMtuHMDqsK4zgOlvkH-41" value="" style="endArrow=classic;html=1;rounded=0;exitX=0.5;exitY=1;exitDx=0;exitDy=0;entryX=0.5;entryY=0;entryDx=0;entryDy=0;" edge="1" parent="AmwMtuHMDqsK4zgOlvkH-56" source="AmwMtuHMDqsK4zgOlvkH-38" target="AmwMtuHMDqsK4zgOlvkH-39">
          <mxGeometry width="50" height="50" relative="1" as="geometry">
            <mxPoint x="-80" y="400" as="sourcePoint" />
            <mxPoint x="-30" y="350" as="targetPoint" />
          </mxGeometry>
        </mxCell>
        <mxCell id="AmwMtuHMDqsK4zgOlvkH-40" value="Thiết kế logic phân quyền giữa user và admin" style="ellipse;whiteSpace=wrap;html=1;" vertex="1" parent="AmwMtuHMDqsK4zgOlvkH-56">
          <mxGeometry x="180" y="310" width="120" height="80" as="geometry" />
        </mxCell>
        <mxCell id="AmwMtuHMDqsK4zgOlvkH-42" value="" style="endArrow=classic;html=1;rounded=0;exitX=1;exitY=0.5;exitDx=0;exitDy=0;entryX=0;entryY=0.5;entryDx=0;entryDy=0;" edge="1" parent="AmwMtuHMDqsK4zgOlvkH-56" source="AmwMtuHMDqsK4zgOlvkH-39" target="AmwMtuHMDqsK4zgOlvkH-40">
          <mxGeometry width="50" height="50" relative="1" as="geometry">
            <mxPoint x="420" y="430" as="sourcePoint" />
            <mxPoint x="470" y="380" as="targetPoint" />
          </mxGeometry>
        </mxCell>
        <mxCell id="AmwMtuHMDqsK4zgOlvkH-57" value="Phase 4" style="swimlane;whiteSpace=wrap;html=1;" vertex="1" parent="1">
          <mxGeometry x="140" y="1140" width="800" height="160" as="geometry" />
        </mxCell>
        <mxCell id="AmwMtuHMDqsK4zgOlvkH-43" value="Viết Testcase" style="ellipse;whiteSpace=wrap;html=1;" vertex="1" parent="AmwMtuHMDqsK4zgOlvkH-57">
          <mxGeometry x="180" y="50" width="120" height="80" as="geometry" />
        </mxCell>
        <mxCell id="AmwMtuHMDqsK4zgOlvkH-44" value="Viết UnitTest" style="ellipse;whiteSpace=wrap;html=1;" vertex="1" parent="AmwMtuHMDqsK4zgOlvkH-57">
          <mxGeometry x="340" y="50" width="120" height="80" as="geometry" />
        </mxCell>
        <mxCell id="AmwMtuHMDqsK4zgOlvkH-46" value="" style="endArrow=classic;html=1;rounded=0;exitX=1;exitY=0.5;exitDx=0;exitDy=0;entryX=0;entryY=0.5;entryDx=0;entryDy=0;" edge="1" parent="AmwMtuHMDqsK4zgOlvkH-57" source="AmwMtuHMDqsK4zgOlvkH-43" target="AmwMtuHMDqsK4zgOlvkH-44">
          <mxGeometry width="50" height="50" relative="1" as="geometry">
            <mxPoint x="430" y="170" as="sourcePoint" />
            <mxPoint x="480" y="120" as="targetPoint" />
          </mxGeometry>
        </mxCell>
      </root>
    </mxGraphModel>
  </diagram>
</mxfile>
